<?xml version="1.0" encoding="UTF-8"?><svg id="uuid-134d2fb6-4b60-4d30-bfb1-601491e763fb" xmlns="http://www.w3.org/2000/svg" width="187.4531" height="39.1172" viewBox="0 0 187.4531 39.1172"><g id="uuid-501b5dea-f291-4e38-a22b-2124d4370f56"><path d="m14.0977,29.6426c-1.418.668-2.7656,1.002-4.043,1.002-2.7539,0-4.9453-1.2012-6.5742-3.6035s-2.4434-5.3906-2.4434-8.9648c0-2.2031.3486-4.2891,1.0459-6.2578s1.7783-3.542,3.2432-4.7197,3.1406-1.7666,5.0273-1.7666c1.1602,0,2.4082.2988,3.7441.8965v5.6074c-.9258-.9141-1.9219-1.3711-2.9883-1.3711-1.3242,0-2.3701.668-3.1377,2.0039s-1.1514,3.2695-1.1514,5.8008c0,2.168.3838,3.9053,1.1514,5.2119s1.7842,1.96,3.0498,1.96c.9258,0,1.9512-.4395,3.0762-1.3184v5.5195Z"/><path d="m24.1172,13.1191c2.3086,0,4.2012.7617,5.6777,2.2852s2.2148,3.6562,2.2148,6.3984c0,2.6016-.709,4.7256-2.127,6.3721s-3.3457,2.4697-5.7832,2.4697-4.3359-.8145-5.6953-2.4434-2.0391-3.7031-2.0391-6.2227c0-2.625.7119-4.7578,2.1357-6.3984s3.2959-2.4609,5.6162-2.4609Zm.0527,4.2891c-.6914,0-1.2129.3721-1.5645,1.1162s-.5273,1.8604-.5273,3.3486c0,1.4648.1729,2.5664.5186,3.3047s.8643,1.1074,1.5557,1.1074c.7031,0,1.2275-.3662,1.5732-1.0986s.5186-1.8311.5186-3.2959c0-1.5-.1729-2.6221-.5186-3.3662s-.8643-1.1162-1.5557-1.1162Z"/><path d="m34.8926,5.7363h5.5898v24.5215h-5.5898V5.7363Z"/><path d="m44.2617,5.7363h5.5898v24.5215h-5.5898V5.7363Z"/><path d="m54.334,14.4727c1.9102-.9023,3.7207-1.3535,5.4316-1.3535,1.2656,0,2.3701.2227,3.3135.668s1.7373,1.166,2.3818,2.1621.9668,2.2676.9668,3.8145v5.625c0,1.6289.334,3.252,1.002,4.8691h-5.5898c-.2109-.4663-.3809-.9971-.5098-1.5918-.5508.6533-1.1279,1.147-1.7314,1.4795s-1.2393.499-1.9072.499c-1.3008,0-2.4639-.5186-3.4893-1.5557s-1.5381-2.2998-1.5381-3.7881c0-3.3516,2.8887-5.3965,8.666-6.1348-.1289-.6094-.4453-1.0664-.9492-1.3711s-1.1953-.457-2.0742-.457c-1.2891,0-2.6133.5273-3.9727,1.582v-4.4473Zm6.9961,7.4707c-2.3438.2119-3.5156,1.0884-3.5156,2.6289,0,.5767.1758,1.0645.5273,1.4648.3516.3994.7676.5996,1.248.5996.5625,0,.9932-.2412,1.292-.7236.2988-.4819.4482-1.0879.4482-1.8174v-2.1523Z"/><path d="m69.9961,5.7363h5.502v9.4316c.5498-.6885,1.1318-1.2021,1.7456-1.541.6143-.3384,1.2544-.5078,1.9214-.5078,1.6958,0,3.0732.8379,4.1318,2.5137s1.5879,3.6387,1.5879,5.8887c0,2.543-.626,4.6992-1.8774,6.4688-1.252,1.7695-2.7314,2.6543-4.4395,2.6543-.6318,0-1.2368-.1523-1.8159-.457s-1.1318-.7559-1.6582-1.3535l-1.5117,1.4238h-3.5859V5.7363Zm5.502,19.2637c.2334.3057.4751.5342.7261.687.2505.1528.5161.229.7959.229.6299,0,1.146-.3701,1.5483-1.1099s.6035-1.7676.6035-3.083c0-1.2095-.1724-2.1519-.5161-2.8276-.3442-.6748-.8193-1.0127-1.4258-1.0127-.5713,0-1.0029.2617-1.2944.7842-.292.5225-.4375,1.3125-.4375,2.3691v3.9639Z"/><path d="m94.5879,13.1191c2.3086,0,4.2012.7617,5.6777,2.2852s2.2148,3.6562,2.2148,6.3984c0,2.6016-.709,4.7256-2.127,6.3721s-3.3457,2.4697-5.7832,2.4697-4.3359-.8145-5.6953-2.4434-2.0391-3.7031-2.0391-6.2227c0-2.625.7119-4.7578,2.1357-6.3984s3.2959-2.4609,5.6162-2.4609Zm.0527,4.2891c-.6914,0-1.2129.3721-1.5645,1.1162s-.5273,1.8604-.5273,3.3486c0,1.4648.1729,2.5664.5186,3.3047s.8643,1.1074,1.5557,1.1074c.7031,0,1.2275-.3662,1.5732-1.0986s.5186-1.8311.5186-3.2959c0-1.5-.1729-2.6221-.5186-3.3662s-.8643-1.1162-1.5557-1.1162Z"/><path d="m110.584,15.7207c.3398-.8672.7559-1.5176,1.248-1.9512s1.0664-.6504,1.7227-.6504c.4219,0,.873.1289,1.3535.3867v5.2734c-.5742-.2812-1.0957-.4219-1.5645-.4219-.7148,0-1.3066.29-1.7754.8701s-.7031,1.3213-.7031,2.2236v8.8066h-5.6602V13.5059h4.8164l.5625,2.2148Z"/><path d="m118.4062,14.4727c1.9102-.9023,3.7207-1.3535,5.4316-1.3535,1.2656,0,2.3701.2227,3.3135.668s1.7373,1.166,2.3818,2.1621.9668,2.2676.9668,3.8145v5.625c0,1.6289.334,3.252,1.002,4.8691h-5.5898c-.2109-.4663-.3809-.9971-.5098-1.5918-.5508.6533-1.1279,1.147-1.7314,1.4795s-1.2393.499-1.9072.499c-1.3008,0-2.4639-.5186-3.4893-1.5557s-1.5381-2.2998-1.5381-3.7881c0-3.3516,2.8887-5.3965,8.666-6.1348-.1289-.6094-.4453-1.0664-.9492-1.3711s-1.1953-.457-2.0742-.457c-1.2891,0-2.6133.5273-3.9727,1.582v-4.4473Zm6.9961,7.4707c-2.3438.2119-3.5156,1.0884-3.5156,2.6289,0,.5767.1758,1.0645.5273,1.4648.3516.3994.7676.5996,1.248.5996.5625,0,.9932-.2412,1.292-.7236.2988-.4819.4482-1.0879.4482-1.8174v-2.1523Z"/><path d="m134.8242,8.4609h4.6406v5.0449h2.7773v4.0957h-2.5312v6.8555c0,1.0547.4219,1.582,1.2656,1.582.4102,0,.832-.1582,1.2656-.4746v4.5352c-1.0312.3633-2.0801.5449-3.1465.5449-1.7344,0-3.0088-.4131-3.8232-1.2393s-1.2217-2.1064-1.2217-3.8408v-7.9629h-2.0566v-4.0957h2.373l.457-5.0449Z"/><path d="m147.9375,5.332c.7617,0,1.4531.2754,2.0742.8262s.9316,1.2656.9316,2.1445c0,.832-.2959,1.5352-.8877,2.1094s-1.2979.8613-2.1182.8613c-.8438,0-1.5557-.2959-2.1357-.8877s-.8701-1.292-.8701-2.1006c0-.8203.2988-1.5176.8965-2.0918s1.3008-.8613,2.1094-.8613Zm-2.8301,8.1738h5.5898v16.752h-5.5898V13.5059Z"/><path d="m159.6973,15.2461c.4932-.7148,1.0537-1.248,1.6821-1.5996s1.3301-.5273,2.105-.5273c1.3271,0,2.4341.4834,3.3203,1.4502.8867.9668,1.3301,2.1709,1.3301,3.6123v12.0762h-5.5898v-10.916c0-.9492-.3516-1.4238-1.0547-1.4238-.4922,0-.8848.2578-1.1777.7734s-.4395,1.2363-.4395,2.1621v9.4043h-5.5195V13.5059h4.7988l.5449,1.7402Z"/><path d="m180.0176,28.2363c-.4805.668-1.0137,1.1719-1.5996,1.5117s-1.2305.5098-1.9336.5098c-1.5703,0-2.9238-.8203-4.0605-2.4609s-1.7051-3.6152-1.7051-5.9238c0-2.25.5742-4.2715,1.7227-6.0645s2.6191-2.6895,4.4121-2.6895c.6797,0,1.3125.1436,1.8984.4307s1.125.7236,1.6172,1.3096l1.5117-1.3535h3.7266v16.084c0,2.4961-.6914,4.5967-2.0742,6.3018s-3.3457,2.5576-5.8887,2.5576c-1.8633,0-3.8027-.5215-5.8184-1.5645v-5.5195c1.7695,1.3828,3.3105,2.0742,4.623,2.0742,1.0195,0,1.8691-.3428,2.5488-1.0283s1.0195-1.5498,1.0195-2.5928v-1.582Zm0-9.6152c-.2578-.293-.5156-.5098-.7734-.6504s-.5156-.2109-.7734-.2109c-.6445,0-1.1543.3486-1.5293,1.0459s-.5625,1.6084-.5625,2.7334c0,1.1484.1816,2.0771.5449,2.7861s.8379,1.0635,1.4238,1.0635c.5625,0,.9814-.2695,1.2568-.8086s.4131-1.3418.4131-2.4082v-3.5508Z"/></g></svg>