<?xml version="1.0" encoding="UTF-8"?><svg id="uuid-ff4a960a-01c3-4197-9b03-392a0cc98ec8" xmlns="http://www.w3.org/2000/svg" width="203.8008" height="39.1172" viewBox="0 0 203.8008 39.1172"><g id="uuid-02447d2b-e6fb-4bbf-a996-7d10f3c6e1b8"><path d="m1.7754,5.7363h5.7305v19.5117h7.875v5.0098H1.7754V5.7363Z"/><path d="m30.1289,28.834c-2.1475,1.207-4.1479,1.8105-6.0015,1.8105-2.4175,0-4.3799-.8145-5.8872-2.4434-1.5078-1.6289-2.2617-3.7148-2.2617-6.2578,0-2.4609.7129-4.5469,2.1382-6.2578s3.3291-2.5664,5.7109-2.5664c2.1118,0,3.8013.7324,5.0688,2.1973,1.2666,1.4648,1.9004,3.4277,1.9004,5.8887v1.3887h-9.0176c.2583,1.125.6987,1.9688,1.3213,2.5312.6221.5625,1.4268.8438,2.4131.8438.7632,0,1.4619-.1699,2.0962-.5098s1.4736-.9492,2.519-1.8281v5.2031Zm-4.2188-9.2109v-.5625c0-.7617-.2002-1.4121-.6001-1.9512s-.8999-.8086-1.5-.8086c-.7061,0-1.2505.2754-1.6328.8262s-.603,1.3828-.6616,2.4961h4.3945Z"/><path d="m34.4531,14.4727c1.9102-.9023,3.7207-1.3535,5.4316-1.3535,1.2656,0,2.3701.2227,3.3135.668s1.7373,1.166,2.3818,2.1621.9668,2.2676.9668,3.8145v5.625c0,1.6289.334,3.252,1.002,4.8691h-5.5898c-.2109-.4663-.3809-.9971-.5098-1.5918-.5508.6533-1.1279,1.147-1.7314,1.4795s-1.2393.499-1.9072.499c-1.3008,0-2.4639-.5186-3.4893-1.5557s-1.5381-2.2998-1.5381-3.7881c0-3.3516,2.8887-5.3965,8.666-6.1348-.1289-.6094-.4453-1.0664-.9492-1.3711s-1.1953-.457-2.0742-.457c-1.2891,0-2.6133.5273-3.9727,1.582v-4.4473Zm6.9961,7.4707c-2.3438.2119-3.5156,1.0884-3.5156,2.6289,0,.5767.1758,1.0645.5273,1.4648.3516.3994.7676.5996,1.248.5996.5625,0,.9932-.2412,1.292-.7236.2988-.4819.4482-1.0879.4482-1.8174v-2.1523Z"/><path d="m58.377,5.7363h5.5898v24.5215h-4.9238l-.5083-1.9512c-.5283.7734-1.1035,1.3564-1.7256,1.749-.6226.3926-1.2915.5889-2.0078.5889-1.7021,0-3.0874-.8701-4.1558-2.6104s-1.6025-3.7529-1.6025-6.0381c0-2.3789.5723-4.4531,1.7173-6.2227,1.1445-1.7695,2.6035-2.6543,4.3765-2.6543.54,0,1.0796.1143,1.6196.3428s1.0806.5771,1.6206,1.0459V5.7363Zm0,12.9727c-.2471-.3281-.5005-.5742-.7593-.7383-.2593-.1641-.5303-.2461-.8125-.2461-.6479,0-1.166.3691-1.5542,1.1074-.3887.7383-.583,1.7168-.583,2.9355,0,1.1719.1855,2.1299.5562,2.874s.8623,1.1162,1.4751,1.1162c.5298,0,.9414-.2725,1.2363-.8174.2939-.5449.4414-1.1982.4414-1.96v-4.2715Z"/><path d="m70.3477,5.332c.7617,0,1.4531.2754,2.0742.8262s.9316,1.2656.9316,2.1445c0,.832-.2959,1.5352-.8877,2.1094s-1.2979.8613-2.1182.8613c-.8438,0-1.5557-.2959-2.1357-.8877s-.8701-1.292-.8701-2.1006c0-.8203.2988-1.5176.8965-2.0918s1.3008-.8613,2.1094-.8613Zm-2.8301,8.1738h5.5898v16.752h-5.5898V13.5059Z"/><path d="m82.1074,15.2461c.4932-.7148,1.0537-1.248,1.6821-1.5996s1.3301-.5273,2.105-.5273c1.3271,0,2.4341.4834,3.3203,1.4502.8867.9668,1.3301,2.1709,1.3301,3.6123v12.0762h-5.5898v-10.916c0-.9492-.3516-1.4238-1.0547-1.4238-.4922,0-.8848.2578-1.1777.7734s-.4395,1.2363-.4395,2.1621v9.4043h-5.5195V13.5059h4.7988l.5449,1.7402Z"/><path d="m102.4277,28.2363c-.4805.668-1.0137,1.1719-1.5996,1.5117s-1.2305.5098-1.9336.5098c-1.5703,0-2.9238-.8203-4.0605-2.4609s-1.7051-3.6152-1.7051-5.9238c0-2.25.5742-4.2715,1.7227-6.0645s2.6191-2.6895,4.4121-2.6895c.6797,0,1.3125.1436,1.8984.4307s1.125.7236,1.6172,1.3096l1.5117-1.3535h3.7266v16.084c0,2.4961-.6914,4.5967-2.0742,6.3018s-3.3457,2.5576-5.8887,2.5576c-1.8633,0-3.8027-.5215-5.8184-1.5645v-5.5195c1.7695,1.3828,3.3105,2.0742,4.623,2.0742,1.0195,0,1.8691-.3428,2.5488-1.0283s1.0195-1.5498,1.0195-2.5928v-1.582Zm0-9.6152c-.2578-.293-.5156-.5098-.7734-.6504s-.5156-.2109-.7734-.2109c-.6445,0-1.1543.3486-1.5293,1.0459s-.5625,1.6084-.5625,2.7334c0,1.1484.1816,2.0771.5449,2.7861s.8379,1.0635,1.4238,1.0635c.5625,0,.9814-.2695,1.2568-.8086s.4131-1.3418.4131-2.4082v-3.5508Z"/><path d="m122.291,8.4609h4.6406v5.0449h2.7773v4.0957h-2.5312v6.8555c0,1.0547.4219,1.582,1.2656,1.582.4102,0,.832-.1582,1.2656-.4746v4.5352c-1.0312.3633-2.0801.5449-3.1465.5449-1.7344,0-3.0088-.4131-3.8232-1.2393s-1.2217-2.1064-1.2217-3.8408v-7.9629h-2.0566v-4.0957h2.373l.457-5.0449Z"/><path d="m145.8105,28.834c-2.1475,1.207-4.1479,1.8105-6.0015,1.8105-2.4175,0-4.3799-.8145-5.8872-2.4434-1.5078-1.6289-2.2617-3.7148-2.2617-6.2578,0-2.4609.7129-4.5469,2.1382-6.2578s3.3291-2.5664,5.7109-2.5664c2.1118,0,3.8013.7324,5.0688,2.1973,1.2666,1.4648,1.9004,3.4277,1.9004,5.8887v1.3887h-9.0176c.2583,1.125.6987,1.9688,1.3213,2.5312.6221.5625,1.4268.8438,2.4131.8438.7632,0,1.4619-.1699,2.0962-.5098s1.4736-.9492,2.519-1.8281v5.2031Zm-4.2188-9.2109v-.5625c0-.7617-.2002-1.4121-.6001-1.9512s-.8999-.8086-1.5-.8086c-.7061,0-1.2505.2754-1.6328.8262s-.603,1.3828-.6616,2.4961h4.3945Z"/><path d="m150.1348,14.4727c1.9102-.9023,3.7207-1.3535,5.4316-1.3535,1.2656,0,2.3701.2227,3.3135.668s1.7373,1.166,2.3818,2.1621.9668,2.2676.9668,3.8145v5.625c0,1.6289.334,3.252,1.002,4.8691h-5.5898c-.2109-.4663-.3809-.9971-.5098-1.5918-.5508.6533-1.1279,1.147-1.7314,1.4795s-1.2393.499-1.9072.499c-1.3008,0-2.4639-.5186-3.4893-1.5557s-1.5381-2.2998-1.5381-3.7881c0-3.3516,2.8887-5.3965,8.666-6.1348-.1289-.6094-.4453-1.0664-.9492-1.3711s-1.1953-.457-2.0742-.457c-1.2891,0-2.6133.5273-3.9727,1.582v-4.4473Zm6.9961,7.4707c-2.3438.2119-3.5156,1.0884-3.5156,2.6289,0,.5767.1758,1.0645.5273,1.4648.3516.3994.7676.5996,1.248.5996.5625,0,.9932-.2412,1.292-.7236.2988-.4819.4482-1.0879.4482-1.8174v-2.1523Z"/><path d="m178.5059,15.8262c.5283-.9023,1.1445-1.5791,1.8491-2.0303s1.5029-.6768,2.3955-.6768c1.4438,0,2.6006.5361,3.4697,1.6084.8687,1.0723,1.3032,2.4521,1.3032,4.1396v11.3906h-5.5898v-10.3008c0-1.3125-.375-1.9688-1.125-1.9688-.5156,0-.9023.2432-1.1602.7295s-.3867,1.2217-.3867,2.2061v9.334h-5.5371v-10.3008c0-1.3125-.3691-1.9688-1.1074-1.9688-.457,0-.8262.249-1.1074.7471s-.4219,1.1162-.4219,1.8545v9.668h-5.502V13.5059h4.7109l.6152,1.8105c.4922-.7383,1.0547-1.2891,1.6875-1.6523s1.3418-.5449,2.127-.5449c1.6992,0,2.959.9023,3.7793,2.707Z"/><path d="m190.3008,24.0879c1.793,1.4766,3.3457,2.2148,4.6582,2.2148.5039,0,.9375-.1318,1.3008-.3955s.5449-.6123.5449-1.0459c0-.3281-.1436-.6064-.4307-.835s-.8232-.4951-1.6084-.7998c-1.875-.7266-3.0879-1.5176-3.6387-2.373s-.8262-1.7051-.8262-2.5488c0-1.5586.6416-2.8125,1.9248-3.7617s2.8447-1.4238,4.6846-1.4238c1.5938,0,3.1699.3633,4.7285,1.0898v4.9746c-1.3008-1.125-2.5488-1.6875-3.7441-1.6875-.5391,0-.9434.0879-1.2129.2637s-.4043.4453-.4043.8086c0,.4922.5801.9258,1.7402,1.3008,3.1523,1.043,4.7285,2.7129,4.7285,5.0098,0,1.6172-.6475,2.9824-1.9424,4.0957s-2.9619,1.6699-5.001,1.6699c-1.7109,0-3.5449-.4863-5.502-1.459v-5.0977Z"/></g></svg>