<?xml version="1.0" encoding="UTF-8"?><svg id="uuid-85820be9-2e2c-4c84-be6f-7c203ba7a22e" xmlns="http://www.w3.org/2000/svg" width="182.7949" height="39.1172" viewBox="0 0 182.7949 39.1172"><g id="uuid-822c6282-3288-40fb-b21d-43effd3f108b"><path d="m1.4766,5.7363h5.6953v16.2422c0,1.2891.1787,2.2588.5361,2.9092s.8936.9756,1.6084.9756c.75,0,1.3096-.2959,1.6787-.8877s.5537-1.4795.5537-2.6631V5.7363h5.7305v16.8926c0,2.5547-.7002,4.5293-2.1006,5.9238s-3.3721,2.0918-5.915,2.0918c-2.4609,0-4.374-.6738-5.7393-2.0215s-2.0479-3.3457-2.0479-5.9941V5.7363Z"/><path d="m19.8809,24.0879c1.793,1.4766,3.3457,2.2148,4.6582,2.2148.5039,0,.9375-.1318,1.3008-.3955s.5449-.6123.5449-1.0459c0-.3281-.1436-.6064-.4307-.835s-.8232-.4951-1.6084-.7998c-1.875-.7266-3.0879-1.5176-3.6387-2.373s-.8262-1.7051-.8262-2.5488c0-1.5586.6416-2.8125,1.9248-3.7617s2.8447-1.4238,4.6846-1.4238c1.5938,0,3.1699.3633,4.7285,1.0898v4.9746c-1.3008-1.125-2.5488-1.6875-3.7441-1.6875-.5391,0-.9434.0879-1.2129.2637s-.4043.4453-.4043.8086c0,.4922.5801.9258,1.7402,1.3008,3.1523,1.043,4.7285,2.7129,4.7285,5.0098,0,1.6172-.6475,2.9824-1.9424,4.0957s-2.9619,1.6699-5.001,1.6699c-1.7109,0-3.5449-.4863-5.502-1.459v-5.0977Z"/><path d="m48.5156,28.834c-2.1475,1.207-4.1479,1.8105-6.0015,1.8105-2.4175,0-4.3799-.8145-5.8872-2.4434-1.5078-1.6289-2.2617-3.7148-2.2617-6.2578,0-2.4609.7129-4.5469,2.1382-6.2578s3.3291-2.5664,5.7109-2.5664c2.1118,0,3.8013.7324,5.0688,2.1973,1.2666,1.4648,1.9004,3.4277,1.9004,5.8887v1.3887h-9.0176c.2583,1.125.6987,1.9688,1.3213,2.5312.6221.5625,1.4268.8438,2.4131.8438.7632,0,1.4619-.1699,2.0962-.5098s1.4736-.9492,2.519-1.8281v5.2031Zm-4.2188-9.2109v-.5625c0-.7617-.2002-1.4121-.6001-1.9512s-.8999-.8086-1.5-.8086c-.7061,0-1.2505.2754-1.6328.8262s-.603,1.3828-.6616,2.4961h4.3945Z"/><path d="m57.3574,15.7207c.3398-.8672.7559-1.5176,1.248-1.9512s1.0664-.6504,1.7227-.6504c.4219,0,.873.1289,1.3535.3867v5.2734c-.5742-.2812-1.0957-.4219-1.5645-.4219-.7148,0-1.3066.29-1.7754.8701s-.7031,1.3213-.7031,2.2236v8.8066h-5.6602V13.5059h4.8164l.5625,2.2148Z"/><path d="m72.8789,5.7363h5.7656v24.5215h-5.7656V5.7363Z"/><path d="m87.5566,15.2461c.4932-.7148,1.0537-1.248,1.6821-1.5996s1.3301-.5273,2.105-.5273c1.3271,0,2.4341.4834,3.3203,1.4502.8867.9668,1.3301,2.1709,1.3301,3.6123v12.0762h-5.5898v-10.916c0-.9492-.3516-1.4238-1.0547-1.4238-.4922,0-.8848.2578-1.1777.7734s-.4395,1.2363-.4395,2.1621v9.4043h-5.5195V13.5059h4.7988l.5449,1.7402Z"/><path d="m98.8066,24.0879c1.793,1.4766,3.3457,2.2148,4.6582,2.2148.5039,0,.9375-.1318,1.3008-.3955s.5449-.6123.5449-1.0459c0-.3281-.1436-.6064-.4307-.835s-.8232-.4951-1.6084-.7998c-1.875-.7266-3.0879-1.5176-3.6387-2.373s-.8262-1.7051-.8262-2.5488c0-1.5586.6416-2.8125,1.9248-3.7617s2.8447-1.4238,4.6846-1.4238c1.5938,0,3.1699.3633,4.7285,1.0898v4.9746c-1.3008-1.125-2.5488-1.6875-3.7441-1.6875-.5391,0-.9434.0879-1.2129.2637s-.4043.4453-.4043.8086c0,.4922.5801.9258,1.7402,1.3008,3.1523,1.043,4.7285,2.7129,4.7285,5.0098,0,1.6172-.6475,2.9824-1.9424,4.0957s-2.9619,1.6699-5.001,1.6699c-1.7109,0-3.5449-.4863-5.502-1.459v-5.0977Z"/><path d="m117.0352,5.332c.7617,0,1.4531.2754,2.0742.8262s.9316,1.2656.9316,2.1445c0,.832-.2959,1.5352-.8877,2.1094s-1.2979.8613-2.1182.8613c-.8438,0-1.5557-.2959-2.1357-.8877s-.8701-1.292-.8701-2.1006c0-.8203.2988-1.5176.8965-2.0918s1.3008-.8613,2.1094-.8613Zm-2.8301,8.1738h5.5898v16.752h-5.5898V13.5059Z"/><path d="m131.8711,28.2363c-.4805.668-1.0137,1.1719-1.5996,1.5117s-1.2305.5098-1.9336.5098c-1.5703,0-2.9238-.8203-4.0605-2.4609s-1.7051-3.6152-1.7051-5.9238c0-2.25.5742-4.2715,1.7227-6.0645s2.6191-2.6895,4.4121-2.6895c.6797,0,1.3125.1436,1.8984.4307s1.125.7236,1.6172,1.3096l1.5117-1.3535h3.7266v16.084c0,2.4961-.6914,4.5967-2.0742,6.3018s-3.3457,2.5576-5.8887,2.5576c-1.8633,0-3.8027-.5215-5.8184-1.5645v-5.5195c1.7695,1.3828,3.3105,2.0742,4.623,2.0742,1.0195,0,1.8691-.3428,2.5488-1.0283s1.0195-1.5498,1.0195-2.5928v-1.582Zm0-9.6152c-.2578-.293-.5156-.5098-.7734-.6504s-.5156-.2109-.7734-.2109c-.6445,0-1.1543.3486-1.5293,1.0459s-.5625,1.6084-.5625,2.7334c0,1.1484.1816,2.0771.5449,2.7861s.8379,1.0635,1.4238,1.0635c.5625,0,.9814-.2695,1.2568-.8086s.4131-1.3418.4131-2.4082v-3.5508Z"/><path d="m141.082,5.7363h5.5547v9.2285c.5391-.6211,1.1162-1.084,1.7314-1.3887s1.2686-.457,1.96-.457c1.3242,0,2.4111.5068,3.2607,1.5205s1.2744,2.2588,1.2744,3.7354v11.8828h-5.5898v-11.0215c0-.9023-.3691-1.3535-1.1074-1.3535-.5039,0-.8848.2461-1.1426.7383s-.3867,1.2305-.3867,2.2148v9.4219h-5.5547V5.7363Z"/><path d="m159.7852,8.4609h4.6406v5.0449h2.7773v4.0957h-2.5312v6.8555c0,1.0547.4219,1.582,1.2656,1.582.4102,0,.832-.1582,1.2656-.4746v4.5352c-1.0312.3633-2.0801.5449-3.1465.5449-1.7344,0-3.0088-.4131-3.8232-1.2393s-1.2217-2.1064-1.2217-3.8408v-7.9629h-2.0566v-4.0957h2.373l.457-5.0449Z"/><path d="m169.2949,24.0879c1.793,1.4766,3.3457,2.2148,4.6582,2.2148.5039,0,.9375-.1318,1.3008-.3955s.5449-.6123.5449-1.0459c0-.3281-.1436-.6064-.4307-.835s-.8232-.4951-1.6084-.7998c-1.875-.7266-3.0879-1.5176-3.6387-2.373s-.8262-1.7051-.8262-2.5488c0-1.5586.6416-2.8125,1.9248-3.7617s2.8447-1.4238,4.6846-1.4238c1.5938,0,3.1699.3633,4.7285,1.0898v4.9746c-1.3008-1.125-2.5488-1.6875-3.7441-1.6875-.5391,0-.9434.0879-1.2129.2637s-.4043.4453-.4043.8086c0,.4922.5801.9258,1.7402,1.3008,3.1523,1.043,4.7285,2.7129,4.7285,5.0098,0,1.6172-.6475,2.9824-1.9424,4.0957s-2.9619,1.6699-5.001,1.6699c-1.7109,0-3.5449-.4863-5.502-1.459v-5.0977Z"/></g></svg>