<?xml version="1.0" encoding="UTF-8"?><svg id="uuid-aa52eeda-125f-4e04-b836-0d71fc22b1e9" xmlns="http://www.w3.org/2000/svg" width="195.4863" height="39.1172" viewBox="0 0 195.4863 39.1172"><g id="uuid-2660e2e5-f029-489f-b1c3-231b559bbe2f"><path d="m1.4766,5.7363h5.6953v16.2422c0,1.2891.1787,2.2588.5361,2.9092s.8936.9756,1.6084.9756c.75,0,1.3096-.2959,1.6787-.8877s.5537-1.4795.5537-2.6631V5.7363h5.7305v16.8926c0,2.5547-.7002,4.5293-2.1006,5.9238s-3.3721,2.0918-5.915,2.0918c-2.4609,0-4.374-.6738-5.7393-2.0215s-2.0479-3.3457-2.0479-5.9941V5.7363Z"/><path d="m19.8809,24.0879c1.793,1.4766,3.3457,2.2148,4.6582,2.2148.5039,0,.9375-.1318,1.3008-.3955s.5449-.6123.5449-1.0459c0-.3281-.1436-.6064-.4307-.835s-.8232-.4951-1.6084-.7998c-1.875-.7266-3.0879-1.5176-3.6387-2.373s-.8262-1.7051-.8262-2.5488c0-1.5586.6416-2.8125,1.9248-3.7617s2.8447-1.4238,4.6846-1.4238c1.5938,0,3.1699.3633,4.7285,1.0898v4.9746c-1.3008-1.125-2.5488-1.6875-3.7441-1.6875-.5391,0-.9434.0879-1.2129.2637s-.4043.4453-.4043.8086c0,.4922.5801.9258,1.7402,1.3008,3.1523,1.043,4.7285,2.7129,4.7285,5.0098,0,1.6172-.6475,2.9824-1.9424,4.0957s-2.9619,1.6699-5.001,1.6699c-1.7109,0-3.5449-.4863-5.502-1.459v-5.0977Z"/><path d="m48.5156,28.834c-2.1475,1.207-4.1479,1.8105-6.0015,1.8105-2.4175,0-4.3799-.8145-5.8872-2.4434-1.5078-1.6289-2.2617-3.7148-2.2617-6.2578,0-2.4609.7129-4.5469,2.1382-6.2578s3.3291-2.5664,5.7109-2.5664c2.1118,0,3.8013.7324,5.0688,2.1973,1.2666,1.4648,1.9004,3.4277,1.9004,5.8887v1.3887h-9.0176c.2583,1.125.6987,1.9688,1.3213,2.5312.6221.5625,1.4268.8438,2.4131.8438.7632,0,1.4619-.1699,2.0962-.5098s1.4736-.9492,2.519-1.8281v5.2031Zm-4.2188-9.2109v-.5625c0-.7617-.2002-1.4121-.6001-1.9512s-.8999-.8086-1.5-.8086c-.7061,0-1.2505.2754-1.6328.8262s-.603,1.3828-.6616,2.4961h4.3945Z"/><path d="m57.3574,15.7207c.3398-.8672.7559-1.5176,1.248-1.9512s1.0664-.6504,1.7227-.6504c.4219,0,.873.1289,1.3535.3867v5.2734c-.5742-.2812-1.0957-.4219-1.5645-.4219-.7148,0-1.3066.29-1.7754.8701s-.7031,1.3213-.7031,2.2236v8.8066h-5.6602V13.5059h4.8164l.5625,2.2148Z"/><path d="m72.6328,5.7363h8.8066c1.9922,0,3.6064.5156,4.8428,1.5469s1.8545,2.4961,1.8545,4.3945c0,1.5586-.4424,2.8857-1.3271,3.9814s-2.2119,1.96-3.9814,2.5928c2.2148.3516,3.5859,1.7578,4.1133,4.2188l1.6699,7.7871h-6.2578l-.9155-6.7847c-.1641-1.1489-.4365-1.9868-.8169-2.5142-.3809-.5273-.9639-.791-1.7485-.791h-.5269v10.0898h-5.7129V5.7363Zm5.7129,4.7637v5.2559h1.248c.8906,0,1.5703-.2637,2.0391-.791s.7031-1.1953.7031-2.0039c0-.8203-.2051-1.4355-.6152-1.8457s-1.0312-.6152-1.8633-.6152h-1.5117Z"/><path d="m103.6934,28.834c-2.1475,1.207-4.1479,1.8105-6.0015,1.8105-2.4175,0-4.3799-.8145-5.8872-2.4434-1.5078-1.6289-2.2617-3.7148-2.2617-6.2578,0-2.4609.7129-4.5469,2.1382-6.2578s3.3291-2.5664,5.7109-2.5664c2.1118,0,3.8013.7324,5.0688,2.1973,1.2666,1.4648,1.9004,3.4277,1.9004,5.8887v1.3887h-9.0176c.2583,1.125.6987,1.9688,1.3213,2.5312.6221.5625,1.4268.8438,2.4131.8438.7632,0,1.4619-.1699,2.0962-.5098s1.4736-.9492,2.519-1.8281v5.2031Zm-4.2188-9.2109v-.5625c0-.7617-.2002-1.4121-.6001-1.9512s-.8999-.8086-1.5-.8086c-.7061,0-1.2505.2754-1.6328.8262s-.603,1.3828-.6616,2.4961h4.3945Z"/><path d="m106.5586,24.0879c1.793,1.4766,3.3457,2.2148,4.6582,2.2148.5039,0,.9375-.1318,1.3008-.3955s.5449-.6123.5449-1.0459c0-.3281-.1436-.6064-.4307-.835s-.8232-.4951-1.6084-.7998c-1.875-.7266-3.0879-1.5176-3.6387-2.373s-.8262-1.7051-.8262-2.5488c0-1.5586.6416-2.8125,1.9248-3.7617s2.8447-1.4238,4.6846-1.4238c1.5938,0,3.1699.3633,4.7285,1.0898v4.9746c-1.3008-1.125-2.5488-1.6875-3.7441-1.6875-.5391,0-.9434.0879-1.2129.2637s-.4043.4453-.4043.8086c0,.4922.5801.9258,1.7402,1.3008,3.1523,1.043,4.7285,2.7129,4.7285,5.0098,0,1.6172-.6475,2.9824-1.9424,4.0957s-2.9619,1.6699-5.001,1.6699c-1.7109,0-3.5449-.4863-5.502-1.459v-5.0977Z"/><path d="m135.1934,28.834c-2.1475,1.207-4.1479,1.8105-6.0015,1.8105-2.4175,0-4.3799-.8145-5.8872-2.4434-1.5078-1.6289-2.2617-3.7148-2.2617-6.2578,0-2.4609.7129-4.5469,2.1382-6.2578s3.3291-2.5664,5.7109-2.5664c2.1118,0,3.8013.7324,5.0688,2.1973,1.2666,1.4648,1.9004,3.4277,1.9004,5.8887v1.3887h-9.0176c.2583,1.125.6987,1.9688,1.3213,2.5312.6221.5625,1.4268.8438,2.4131.8438.7632,0,1.4619-.1699,2.0962-.5098s1.4736-.9492,2.519-1.8281v5.2031Zm-4.2188-9.2109v-.5625c0-.7617-.2002-1.4121-.6001-1.9512s-.8999-.8086-1.5-.8086c-.7061,0-1.2505.2754-1.6328.8262s-.603,1.3828-.6616,2.4961h4.3945Z"/><path d="m139.5176,14.4727c1.9102-.9023,3.7207-1.3535,5.4316-1.3535,1.2656,0,2.3701.2227,3.3135.668s1.7373,1.166,2.3818,2.1621.9668,2.2676.9668,3.8145v5.625c0,1.6289.334,3.252,1.002,4.8691h-5.5898c-.2109-.4663-.3809-.9971-.5098-1.5918-.5508.6533-1.1279,1.147-1.7314,1.4795s-1.2393.499-1.9072.499c-1.3008,0-2.4639-.5186-3.4893-1.5557s-1.5381-2.2998-1.5381-3.7881c0-3.3516,2.8887-5.3965,8.666-6.1348-.1289-.6094-.4453-1.0664-.9492-1.3711s-1.1953-.457-2.0742-.457c-1.2891,0-2.6133.5273-3.9727,1.582v-4.4473Zm6.9961,7.4707c-2.3438.2119-3.5156,1.0884-3.5156,2.6289,0,.5767.1758,1.0645.5273,1.4648.3516.3994.7676.5996,1.248.5996.5625,0,.9932-.2412,1.292-.7236.2988-.4819.4482-1.0879.4482-1.8174v-2.1523Z"/><path d="m160.1543,15.7207c.3398-.8672.7559-1.5176,1.248-1.9512s1.0664-.6504,1.7227-.6504c.4219,0,.873.1289,1.3535.3867v5.2734c-.5742-.2812-1.0957-.4219-1.5645-.4219-.7148,0-1.3066.29-1.7754.8701s-.7031,1.3213-.7031,2.2236v8.8066h-5.6602V13.5059h4.8164l.5625,2.2148Z"/><path d="m176.8184,29.6074c-1.207.6914-2.3906,1.0371-3.5508,1.0371-2.0391,0-3.7588-.8408-5.1592-2.5225s-2.1006-3.7529-2.1006-6.2139c0-2.4492.7178-4.5264,2.1533-6.2314s3.2314-2.5576,5.3877-2.5576c.9492,0,2.0391.2344,3.2695.7031v5.0449c-.7642-.5508-1.4463-.8262-2.0464-.8262-.8584,0-1.5815.3516-2.1694,1.0547s-.8818,1.5938-.8818,2.6719.2969,1.9834.8906,2.7158,1.2905,1.0986,2.0903,1.0986c.6938,0,1.3994-.3105,2.1167-.9316v4.957Z"/><path d="m180.0176,5.7363h5.5547v9.2285c.5391-.6211,1.1162-1.084,1.7314-1.3887s1.2686-.457,1.96-.457c1.3242,0,2.4111.5068,3.2607,1.5205s1.2744,2.2588,1.2744,3.7354v11.8828h-5.5898v-11.0215c0-.9023-.3691-1.3535-1.1074-1.3535-.5039,0-.8848.2461-1.1426.7383s-.3867,1.2305-.3867,2.2148v9.4219h-5.5547V5.7363Z"/></g></svg>